<?xml version="1.0" encoding="UTF-8"?>
<svg version="1.1" xmlns="http://www.w3.org/2000/svg" width="1024" height="1024">
<path d="M0 0 C0 0.66 0 1.32 0 2 C0.90770142 2.05498657 0.90770142 2.05498657 1.83374023 2.11108398 C8.27501263 2.61247813 13.9691971 3.95430025 20.0625 6.0625 C20.96645508 6.37050537 21.87041016 6.67851074 22.80175781 6.99584961 C34.97170424 11.25447593 46.51254029 16.44170609 57 24 C57.66 24.33 58.32 24.66 59 25 C60.67541539 26.65787177 62.3403904 28.32630602 64 30 C64.9868294 30.90445633 65.98053035 31.80146429 66.98046875 32.69140625 C85.56281497 49.27279851 98.99469757 69.38942067 105.95703125 93.40625 C106.89420425 96.63546033 107.91478654 99.81801665 109 103 C109.33 103 109.66 103 110 103 C110.09165343 159.69805589 110.1620884 216.39610437 110.20426132 273.09421984 C110.20925024 279.79539799 110.21443651 286.49657599 110.21972656 293.19775391 C110.2202496 293.86456673 110.22077263 294.53137956 110.22131152 295.21839884 C110.23832698 316.79345686 110.26834972 338.36847271 110.30518888 359.94350523 C110.34408249 382.76342957 110.36800392 405.58333226 110.37635398 428.4032892 C110.38182901 442.05977737 110.39909074 455.71614438 110.43166587 469.37259524 C110.45288969 478.75075553 110.4591823 488.12885363 110.45400551 497.50703616 C110.45145595 502.90920543 110.45522812 508.31116371 110.4768219 513.71329498 C110.63677836 555.8296057 110.63677836 555.8296057 106 573 C105.70846377 574.11324925 105.70846377 574.11324925 105.41103792 575.24898839 C96.36739201 609.35460395 73.59020824 637.06477356 43.54296875 655.0859375 C26.85518967 664.39322081 8.68998126 668.2235601 -10.06152344 670.67456055 C-12.20898286 670.98366505 -12.20898286 670.98366505 -15 672 C-16.7245065 672.09123794 -18.45237541 672.12374954 -20.17929363 672.12304783 C-21.25815262 672.12503888 -22.3370116 672.12702993 -23.44856328 672.12908131 C-25.2330736 672.12471205 -25.2330736 672.12471205 -27.05363464 672.12025452 C-28.31393205 672.12110894 -29.57422945 672.12196337 -30.87271768 672.12284368 C-34.37763578 672.12508524 -37.88252347 672.12107197 -41.3874377 672.11606562 C-45.16451638 672.11175647 -48.94159327 672.11320788 -52.71867371 672.1139679 C-59.26496476 672.11449283 -65.81124586 672.11134916 -72.35753441 672.10573006 C-81.82242667 672.09761101 -91.2873141 672.09499942 -100.75220946 672.09374207 C-116.10751412 672.09155219 -131.46281346 672.08489383 -146.81811523 672.07543945 C-161.73640923 672.06626369 -176.6547018 672.05918366 -191.57299805 672.05493164 C-192.49220451 672.05466892 -193.41141098 672.05440619 -194.35847219 672.05413551 C-198.96975422 672.05283049 -203.58103627 672.05156678 -208.19231832 672.05032361 C-246.46154926 672.03995298 -284.73077428 672.0223364 -323 672 C-323 671.67 -323 671.34 -323 671 C-342.8 671 -362.6 671 -383 671 C-383 671.33 -383 671.66 -383 672 C-409.33333333 672 -435.66666667 672 -462 672 C-462 671.01 -462 670.02 -462 669 C-463.546875 669.0928125 -463.546875 669.0928125 -465.125 669.1875 C-471.57072148 669.19894888 -477.75828391 667.45521152 -484 666 C-485.70792513 665.62314523 -487.41619195 665.24783085 -489.125 664.875 C-491.76150222 664.27966079 -494.38096763 663.6634882 -497 663 C-496.67 662.67 -496.34 662.34 -496 662 C-498.05927956 661.01407845 -500.12256688 660.03652506 -502.1875 659.0625 C-503.91033203 658.24458984 -503.91033203 658.24458984 -505.66796875 657.41015625 C-508.51466736 656.20539869 -510.96027845 655.45223729 -514 655 C-514 654.34 -514 653.68 -514 653 C-515.48410743 652.02499387 -517.0163234 651.12324093 -518.5625 650.25 C-527.13355447 644.98922274 -534.82045571 637.80523859 -541.51171875 630.30566406 C-543.04588804 628.67025908 -543.04588804 628.67025908 -546 629 C-545.67 628.01 -545.34 627.02 -545 626 C-547.35968744 623.90250005 -548.54616994 623.03094296 -551.75 622.8125 C-552.86375 622.9053125 -552.86375 622.9053125 -554 623 C-553.5875 622.13375 -553.175 621.2675 -552.75 620.375 C-551.59335765 616.90679519 -551.59335765 616.90679519 -553.75 613.75 C-556.48159974 610.4113781 -557.80001299 608.8399974 -562 608 C-561.9175 607.030625 -561.835 606.06125 -561.75 605.0625 C-561.72560572 599.07370418 -564.75471616 593.86792576 -568 589 C-568.75515715 586.43816499 -569.43635408 583.90517263 -570.0625 581.3125 C-570.23587891 580.62994141 -570.40925781 579.94738281 -570.58789062 579.24414062 C-571.75428322 574.51153617 -572.47249533 569.84542946 -573 565 C-574.32 565.33 -575.64 565.66 -577 566 C-578.04549908 562.86350275 -578.00170317 562.0051095 -577 559 C-576.67 558.67 -576.34 558.34 -576 558 C-575.92794489 556.31391034 -575.91613932 554.62499341 -575.9375 552.9375 C-575.94652344 552.01839844 -575.95554687 551.09929688 -575.96484375 550.15234375 C-575.97644531 549.44207031 -575.98804688 548.73179687 -576 548 C-576.66 548 -577.32 548 -578 548 C-578.02531484 540.64934015 -578.04285202 533.2986915 -578.05493164 525.94799805 C-578.05996641 523.44636617 -578.06679461 520.94473724 -578.07543945 518.44311523 C-578.08754238 514.85139234 -578.09323682 511.25970828 -578.09765625 507.66796875 C-578.10281754 506.54601608 -578.10797882 505.42406342 -578.11329651 504.26811218 C-578.11337204 503.22725967 -578.11344757 502.18640717 -578.11352539 501.11401367 C-578.115746 500.19690109 -578.11796661 499.27978851 -578.12025452 498.33488464 C-578 496 -578 496 -577 493 C-577.33 492.67 -577.66 492.34 -578 492 C-578.08767112 489.92737924 -578.10695873 487.85179706 -578.09765625 485.77734375 C-578.09443359 484.51728516 -578.09121094 483.25722656 -578.08789062 481.95898438 C-578.07953403 480.61848891 -578.07106907 479.27799412 -578.0625 477.9375 C-578.0574866 476.59310058 -578.05292342 475.2486994 -578.04882812 473.90429688 C-578.03699488 470.60282059 -578.02050971 467.30143197 -578 464 C-577.67 464 -577.34 464 -577 464 C-577 460.7 -577 457.4 -577 454 C-577.33 454 -577.66 454 -578 454 C-578 430.66666667 -578 407.33333333 -578 384 C-577.67 384 -577.34 384 -577 384 C-577 378.72 -577 373.44 -577 368 C-577.33 368 -577.66 368 -578 368 C-578 363.05 -578 358.1 -578 353 C-577.67 353 -577.34 353 -577 353 C-577 349.37 -577 345.74 -577 342 C-577.33 342 -577.66 342 -578 342 C-578 320 -578 298 -578 276 C-578.00523682 275.16557373 -578.01047363 274.33114746 -578.01586914 273.47143555 C-578.03665956 269.87679857 -578.0496422 266.28217371 -578.0625 262.6875 C-578.07087891 261.43775391 -578.07925781 260.18800781 -578.08789062 258.90039062 C-578.09272461 257.09924805 -578.09272461 257.09924805 -578.09765625 255.26171875 C-578.10289307 254.15787842 -578.10812988 253.05403809 -578.11352539 251.91674805 C-578.01606464 249.41274035 -577.6200969 247.40212975 -577 245 C-577.33 244.67 -577.66 244.34 -578 244 C-578.08702634 242.37700553 -578.10700863 240.7502991 -578.09765625 239.125 C-578.09443359 238.14015625 -578.09121094 237.1553125 -578.08789062 236.140625 C-578.07951172 235.10421875 -578.07113281 234.0678125 -578.0625 233 C-578.05798828 231.96359375 -578.05347656 230.9271875 -578.04882812 229.859375 C-578.03682623 227.23953216 -578.01963637 224.61979418 -578 222 C-578 221.67 -578 221.34 -578 221 C-577.67619874 219.66431979 -577.34342449 218.33076989 -577 217 C-577.33 217 -577.66 217 -578 217 C-578 210.66666667 -578 204.33333333 -578 198 C-578.02320313 196.90816406 -578.04640625 195.81632813 -578.0703125 194.69140625 C-578.08900129 193.31511033 -578.10720839 191.93880781 -578.125 190.5625 C-578.15013672 189.52125977 -578.15013672 189.52125977 -578.17578125 188.45898438 C-578.19340486 186.63846509 -578.10316002 184.81767958 -578 183 C-577.01 182.01 -577.01 182.01 -576 181 C-576.66 181 -577.32 181 -578 181 C-578 174.07 -578 167.14 -578 160 C-577.67 160 -577.34 160 -577 160 C-576.67 141.52 -576.34 123.04 -576 104 C-575.34 104 -574.68 104 -574 104 C-573.13428401 100.87808127 -572.28441396 97.75206694 -571.4375 94.625 C-571.19064453 93.73554688 -570.94378906 92.84609375 -570.68945312 91.9296875 C-570.34624023 90.65351563 -570.34624023 90.65351563 -569.99609375 89.3515625 C-569.78138428 88.56604004 -569.5666748 87.78051758 -569.34545898 86.97119141 C-568.78650404 84.93124301 -568.78650404 84.93124301 -570 83 C-569.34 82.01 -568.68 81.02 -568 80 C-567.67 80.33 -567.34 80.66 -567 81 C-566.32517578 79.43765625 -566.32517578 79.43765625 -565.63671875 77.84375 C-554.60991219 52.98809956 -537.08151149 31.2433091 -513 18 C-513.495 17.01 -513.495 17.01 -514 16 C-513.18660156 15.91363281 -512.37320313 15.82726562 -511.53515625 15.73828125 C-507.14527798 14.82150004 -503.47594679 13.09181174 -499.4375 11.1875 C-488.49047152 6.19398198 -478.13474641 2.48636258 -466 2 C-466 1.34 -466 0.68 -466 0 C-428.007935 -0.15375309 -390.01584469 -0.2986664 -352.02370681 -0.4332476 C-347.43767933 -0.44949974 -342.85165209 -0.46581813 -338.265625 -0.48217773 C-337.35343145 -0.48543066 -336.44123789 -0.48868358 -335.50140211 -0.49203508 C-322.8871313 -0.5371537 -310.2728786 -0.58576897 -297.65863293 -0.6374263 C-275.7776599 -0.72702827 -253.8966706 -0.80906608 -232.015625 -0.87890625 C-230.71643611 -0.88307654 -230.71643611 -0.88307654 -229.39100099 -0.88733107 C-152.92323864 -1.13113197 -76.46445416 -0.69926234 0 0 Z M-577 174 C-577 175.98 -577 177.96 -577 180 C-576.67 180 -576.34 180 -576 180 C-576 178.02 -576 176.04 -576 174 C-576.33 174 -576.66 174 -577 174 Z M-577 188 C-576 192 -576 192 -576 192 Z M-577 201 C-576 203 -576 203 -576 203 Z M-577 205 C-576 207 -576 207 -576 207 Z M-577 208 C-576 212 -576 212 -576 212 Z M-577 237 C-577 238.98 -577 240.96 -577 243 C-576.67 243 -576.34 243 -576 243 C-576 241.02 -576 239.04 -576 237 C-576.33 237 -576.66 237 -577 237 Z M-577 252 C-577 254.31 -577 256.62 -577 259 C-576.67 259 -576.34 259 -576 259 C-576 256.69 -576 254.38 -576 252 C-576.33 252 -576.66 252 -577 252 Z M-577 281 C-576 283 -576 283 -576 283 Z M-577 284 C-577 286.31 -577 288.62 -577 291 C-576.67 291 -576.34 291 -576 291 C-576 288.69 -576 286.38 -576 284 C-576.33 284 -576.66 284 -577 284 Z M-577 292 C-577 294.31 -577 296.62 -577 299 C-576.67 299 -576.34 299 -576 299 C-576 296.69 -576 294.38 -576 292 C-576.33 292 -576.66 292 -577 292 Z M-577 301 C-576 304 -576 304 -576 304 Z M-577 305 C-576 307 -576 307 -576 307 Z M-577 308 C-577 310.64 -577 313.28 -577 316 C-576.67 316 -576.34 316 -576 316 C-576 313.36 -576 310.72 -576 308 C-576.33 308 -576.66 308 -577 308 Z M-577 421 C-577 425.62 -577 430.24 -577 435 C-576.67 435 -576.34 435 -576 435 C-576 430.38 -576 425.76 -576 421 C-576.33 421 -576.66 421 -577 421 Z M-577 469 C-577 471.31 -577 473.62 -577 476 C-576.67 476 -576.34 476 -576 476 C-576 473.69 -576 471.38 -576 469 C-576.33 469 -576.66 469 -577 469 Z M-577 477 C-576 479 -576 479 -576 479 Z M-577 480 C-576 483 -576 483 -576 483 Z M-577 485 C-577 487.31 -577 489.62 -577 492 C-576.67 492 -576.34 492 -576 492 C-576 489.69 -576 487.38 -576 485 C-576.33 485 -576.66 485 -577 485 Z M-577 501 C-577 503.31 -577 505.62 -577 508 C-576.67 508 -576.34 508 -576 508 C-576 505.69 -576 503.38 -576 501 C-576.33 501 -576.66 501 -577 501 Z M-577 509 C-577 510.98 -577 512.96 -577 515 C-576.67 515 -576.34 515 -576 515 C-576 513.02 -576 511.04 -576 509 C-576.33 509 -576.66 509 -577 509 Z M-577 517 C-577 519.31 -577 521.62 -577 524 C-576.67 524 -576.34 524 -576 524 C-576 521.69 -576 519.38 -576 517 C-576.33 517 -576.66 517 -577 517 Z M-551 619 C-551 619.66 -551 620.32 -551 621 C-550.34 620.67 -549.68 620.34 -549 620 C-549.66 619.67 -550.32 619.34 -551 619 Z M-214 670 C-214 670.33 -214 670.66 -214 671 C-209.05 671 -204.1 671 -199 671 C-199 670.67 -199 670.34 -199 670 C-203.95 670 -208.9 670 -214 670 Z M-198 670 C-198 670.33 -198 670.66 -198 671 C-187.77 671 -177.54 671 -167 671 C-167 670.67 -167 670.34 -167 670 C-177.23 670 -187.46 670 -198 670 Z M-166 670 C-166 670.33 -166 670.66 -166 671 C-158.41 671 -150.82 671 -143 671 C-143 670.67 -143 670.34 -143 670 C-150.59 670 -158.18 670 -166 670 Z M-142 670 C-142 670.33 -142 670.66 -142 671 C-139.36 671 -136.72 671 -134 671 C-134 670.67 -134 670.34 -134 670 C-136.64 670 -139.28 670 -142 670 Z M-133 670 C-133 670.33 -133 670.66 -133 671 C-94.06 671 -55.12 671 -15 671 C-15 670.67 -15 670.34 -15 670 C-53.94 670 -92.88 670 -133 670 Z " fill="#171717" transform="translate(746,176)"/>
<path d="M0 0 C27.72 0 55.44 0 84 0 C92.86627886 21.37000547 101.728007 42.74183442 110.5625 64.125 C110.96136414 65.09038696 111.36022827 66.05577393 111.7711792 67.05041504 C116.85799001 79.36471804 121.92478104 91.6870227 126.97235107 104.01745605 C133.23955962 119.32620186 139.57030983 134.60756716 145.9375 149.875 C146.77956794 151.89525245 147.62160907 153.91551608 148.46362305 155.93579102 C152.23795095 164.98963274 156.01618105 174.04179353 159.80714417 183.08868408 C161.41179768 186.92073127 163.01227725 190.75451242 164.61184692 194.58868408 C165.36565227 196.39268307 166.12138494 198.19587802 166.87911987 199.99822998 C167.91901863 202.47210051 168.95244241 204.94857945 169.984375 207.42578125 C170.29268753 208.15462021 170.60100006 208.88345917 170.9186554 209.63438416 C172.14167581 212.58634501 173 214.7708671 173 218 C176.27366324 215.3219394 177.5975966 211.81751642 179.1953125 208.01953125 C179.65172371 206.95868317 179.65172371 206.95868317 180.11735535 205.87640381 C181.12695983 203.52472128 182.12605498 201.16872809 183.125 198.8125 C183.83952741 197.14095497 184.55462617 195.46965406 185.27026367 193.79858398 C186.76997549 190.29269049 188.2649934 186.78484726 189.75634766 183.27539062 C191.54403059 179.06900979 193.3399427 174.8662289 195.13999939 170.66513062 C209.93535522 136.12952987 224.17228932 101.36296084 238.4206543 66.59912109 C242.39060907 56.91408598 246.37274469 47.23423396 250.375 37.5625 C251.01586548 36.01357056 251.01586548 36.01357056 251.66967773 34.43334961 C256.42781528 22.94778673 261.21839396 11.47585449 266 0 C290.75 0 315.5 0 341 0 C341 107.25 341 214.5 341 325 C320.87 325 300.74 325 280 325 C279.97494385 320.37943604 279.9498877 315.75887207 279.92407227 310.99829102 C279.83959824 295.51997999 279.751096 280.04169377 279.66066074 264.56341648 C279.60606624 255.20333877 279.55274984 245.84325742 279.50268555 236.4831543 C279.44459952 225.65671372 279.38309928 214.83029742 279.31640625 204.00390625 C279.31099335 203.12522149 279.30558045 202.24653672 279.30000353 201.34122515 C279.12033498 172.55416574 278.75186516 143.77867391 278 115 C269.39805383 134.592706 261.16094559 154.29645407 253.17066956 174.14553833 C249.20636143 183.98520012 245.19105047 193.80402693 241.17803955 203.62390137 C239.03048052 208.87907861 236.88430973 214.13482258 234.73828125 219.390625 C234.32725159 220.39724182 233.91622192 221.40385864 233.49273682 222.440979 C228.48434108 234.70906615 223.49860303 246.98631386 218.51660156 259.26513672 C216.9278467 263.17916644 215.33511524 267.09157338 213.7421875 271.00390625 C206.4267418 288.97589991 199.19149551 306.97793897 192 325 C177.81 325 163.62 325 149 325 C143.38176125 312.63987474 143.38176125 312.63987474 141.30859375 307.19921875 C140.83744141 305.97138672 140.36628906 304.74355469 139.88085938 303.47851562 C139.39943531 302.21495964 138.91831236 300.95128888 138.4375 299.6875 C133.25421567 286.1008996 127.86125694 272.60022087 122.44773388 259.10410213 C119.75151299 252.38228901 117.06194801 245.65782073 114.37299919 238.93309593 C113.01196448 235.52950503 111.6504901 232.12609001 110.2890625 228.72265625 C109.74120885 227.35302818 109.19335729 225.98339927 108.64550781 224.61376953 C108.23830505 223.59576263 108.23830505 223.59576263 107.82287598 222.55718994 C91.88191732 182.70479329 75.94095866 142.85239665 60 103 C59.67 176.26 59.34 249.52 59 325 C39.53 325 20.06 325 0 325 C0 217.75 0 110.5 0 0 Z " fill="#FDFDFD" transform="translate(287,332)"/>
<path d="M0 0 C19.8 0 39.6 0 60 0 C60.06633455 36.19587127 60.12165017 72.39168447 60.15319599 108.58759929 C60.15694739 112.87635211 60.16083043 117.1651048 60.16479492 121.45385742 C60.16558185 122.30754747 60.16636878 123.16123753 60.16717956 124.04079697 C60.18017681 137.80139371 60.20379874 151.56195223 60.23145839 165.32252642 C60.25967177 179.47832941 60.27620962 193.63411261 60.28226548 207.78994256 C60.28634919 216.50064532 60.29916987 225.21124 60.3237494 233.92190943 C60.33980418 239.92307117 60.34435663 245.92417836 60.34050413 251.92535993 C60.33861264 255.36999568 60.34290038 258.81429677 60.35761642 262.25892258 C60.52361023 303.1739876 57.25629722 347.23643725 30 380 C29.2678125 380.88429688 28.535625 381.76859375 27.78125 382.6796875 C14.31350369 398.28140769 -3.93108431 408.85837939 -23.5625 414.75 C-24.22217773 414.94875732 -24.88185547 415.14751465 -25.56152344 415.35229492 C-37.08997255 418.62748632 -48.35061993 419.34732734 -60.26171875 419.31567383 C-62.73222416 419.31252267 -65.20151733 419.33602514 -67.671875 419.36132812 C-81.14089127 419.41604435 -94.1018043 417.96188742 -106.8125 413.1875 C-107.87247192 412.79848511 -107.87247192 412.79848511 -108.95385742 412.40161133 C-123.7876304 406.8015024 -138.93510239 397.33073177 -148 384 C-146.35983673 379.57263116 -142.97029693 376.90219973 -139.5625 373.8125 C-138.93939941 373.24096191 -138.31629883 372.66942383 -137.67431641 372.08056641 C-131.05163546 366.05303065 -124.19379149 360.33732917 -117 355 C-116.48953125 355.37511719 -115.9790625 355.75023437 -115.453125 356.13671875 C-99.12730814 367.62847282 -79.4228194 371.6667444 -59.7890625 368.37890625 C-42.70144167 364.90278883 -27.68110998 356.26262469 -17.1875 342.1875 C-4.20391279 322.2772622 -0.86270281 299.02716007 -0.84178162 275.74360657 C-0.83684364 274.55814481 -0.83190566 273.37268306 -0.82681805 272.15129822 C-0.81420134 268.89249591 -0.80585809 265.63371635 -0.79939139 262.37489712 C-0.79132765 258.84880136 -0.77765081 255.32272662 -0.76467896 251.79664612 C-0.74300026 245.69795204 -0.72482467 239.59925575 -0.70907402 233.50054359 C-0.6862965 224.68298725 -0.65816493 215.86545428 -0.62875474 207.04791787 C-0.58117503 192.73971927 -0.537885 178.43151108 -0.49731445 164.12329102 C-0.45791042 150.22972874 -0.41647255 136.33617497 -0.37231445 122.44262695 C-0.36822804 121.1565798 -0.36822804 121.1565798 -0.36405908 119.8445519 C-0.3503788 115.54311625 -0.33665868 111.24168073 -0.32291877 106.94024527 C-0.20910525 71.29351358 -0.10305694 35.64676473 0 0 Z " fill="#FDFDFD" transform="translate(689,332)"/>
<path d="M0 0 C337.92 0 675.84 0 1024 0 C1024 337.92 1024 675.84 1024 1024 C686.08 1024 348.16 1024 0 1024 C0 686.08 0 348.16 0 0 Z M1 1 C1 338.26 1 675.52 1 1023 C338.26 1023 675.52 1023 1023 1023 C1023 685.74 1023 348.48 1023 1 C685.74 1 348.48 1 1 1 Z " fill="#B2B1B1" transform="translate(0,0)"/>
<path d="M0 0 C0 0.99 0 1.98 0 3 C1.98 3.495 1.98 3.495 4 4 C3.06640121 3.92920764 2.13280241 3.85841528 1.17091274 3.7854777 C-9.59481275 3.03325907 -20.29480847 2.86084396 -31.08374023 2.87974548 C-32.96195903 2.87930845 -34.84017777 2.8784311 -36.71839619 2.87715632 C-41.83576587 2.8749374 -46.95311432 2.87889668 -52.0704813 2.88393438 C-57.60535744 2.88827637 -63.1402325 2.88678981 -68.67510986 2.8860321 C-78.25015544 2.88550924 -87.82519418 2.88863122 -97.40023804 2.89426994 C-111.24393108 2.90241714 -125.08762084 2.90500346 -138.93131602 2.90625793 C-161.39496781 2.9084434 -183.858616 2.91508114 -206.32226562 2.92456055 C-228.13606752 2.93375505 -249.94986843 2.94083372 -271.76367188 2.94506836 C-272.43688073 2.94519989 -273.11008958 2.94533141 -273.8036987 2.94546692 C-280.56476155 2.94678552 -287.3258244 2.94806132 -294.08688725 2.94930578 C-350.72459406 2.95973467 -407.36229684 2.97736976 -464 3 C-463.360625 2.690625 -462.72125 2.38125 -462.0625 2.0625 C-460.06389179 1.1654837 -460.06389179 1.1654837 -459 0 C-457.48052829 -0.10277372 -455.9562931 -0.13581872 -454.4333601 -0.14145851 C-453.43930446 -0.14754965 -452.44524882 -0.1536408 -451.42107028 -0.15991652 C-449.76174274 -0.16240686 -449.76174274 -0.16240686 -448.06889343 -0.16494751 C-446.90247796 -0.17059105 -445.73606249 -0.1762346 -444.5343011 -0.18204916 C-441.27640213 -0.1967623 -438.01852403 -0.20695128 -434.76060355 -0.21526766 C-431.24513239 -0.22530696 -427.72968624 -0.24105665 -424.2142334 -0.25605774 C-417.27788663 -0.28468243 -410.34153165 -0.30775733 -403.40515824 -0.3288355 C-397.68323926 -0.34628636 -391.9613289 -0.3655296 -386.23941994 -0.38599777 C-385.41914907 -0.38892637 -384.59887821 -0.39185496 -383.75375066 -0.3948723 C-382.08461341 -0.4008325 -380.41547618 -0.4067937 -378.74633894 -0.41275589 C-362.99151913 -0.46876348 -347.23668355 -0.51822497 -331.48183624 -0.5657609 C-318.31574654 -0.60566717 -305.14969304 -0.65193999 -291.98364258 -0.703125 C-207.1162745 -1.03191075 -122.26259057 -1.00024761 0 0 Z " fill="#262625" transform="translate(746,176)"/>
<path d="M0 0 C3.6764349 4.9019132 5.54104201 9.88680194 7.75 15.5625 C8.38615234 17.14321289 8.38615234 17.14321289 9.03515625 18.75585938 C9.43089844 19.76583984 9.82664062 20.77582031 10.234375 21.81640625 C10.59756836 22.73881104 10.96076172 23.66121582 11.33496094 24.61157227 C12 27 12 27 11 30 C10.24948419 28.35440182 9.49962132 26.70850584 8.75 25.0625 C8.33234375 24.14597656 7.9146875 23.22945313 7.484375 22.28515625 C6.2826659 19.62558427 5.09172658 16.96192552 3.90722656 14.29467773 C3.37044281 13.08617409 3.37044281 13.08617409 2.82281494 11.85325623 C2.41552155 10.93589439 2.41552155 10.93589439 2 10 C2.00092179 11.10713065 2.00184359 12.2142613 2.00279331 13.35494137 C2.02495957 40.25187387 2.0414099 67.1488052 2.05181217 94.0457449 C2.0569759 107.05271669 2.06402004 120.05968246 2.07543945 133.06665039 C2.08538396 144.39904235 2.09185287 155.73142995 2.09408849 167.06382614 C2.095396 173.06827176 2.09848435 179.0727049 2.10573006 185.07714653 C2.1124866 190.72162969 2.11461771 196.36609516 2.11310768 202.01058197 C2.11338418 204.08874927 2.11539145 206.16691713 2.11920547 208.24508095 C2.12413702 211.06924749 2.12300029 213.89334612 2.12025452 216.71751404 C2.12316736 217.55115508 2.1260802 218.38479612 2.12908131 219.24369901 C2.11412121 224.88587879 2.11412121 224.88587879 1 226 C-0.8718094 226.09386381 -2.7471806 226.11743804 -4.62133789 226.11352539 C-5.82250748 226.11344986 -7.02367706 226.11337433 -8.26124573 226.11329651 C-9.5685112 226.10813522 -10.87577667 226.10297394 -12.22265625 226.09765625 C-13.56644132 226.09579198 -14.91022707 226.09436812 -16.25401306 226.09336853 C-19.79682277 226.08954402 -23.3395917 226.07971432 -26.88238525 226.06866455 C-30.49515227 226.05844899 -34.10792584 226.0538706 -37.72070312 226.04882812 C-44.8138188 226.03809198 -51.90690674 226.02101636 -59 226 C-59 225.67 -59 225.34 -59 225 C-39.53 225 -20.06 225 0 225 C0 150.75 0 76.5 0 0 Z " fill="#0F0F0F" transform="translate(346,433)"/>
<path d="M0 0 C0.33 0 0.66 0 1 0 C1.33 93.39 1.66 186.78 2 283 C2.33 283 2.66 283 3 283 C3 296.53 3 310.06 3 324 C22.47 324 41.94 324 62 324 C62 324.33 62 324.66 62 325 C54.21151879 325.02314533 46.4230456 325.04092629 38.63453865 325.05181217 C35.01822828 325.05703619 31.40194139 325.06412515 27.78564453 325.07543945 C24.29731896 325.08628538 20.80901602 325.09228047 17.3206749 325.09487724 C15.33862308 325.09763081 13.3565804 325.1054401 11.37454224 325.11329651 C9.57290115 325.11340981 9.57290115 325.11340981 7.73486328 325.11352539 C6.67341095 325.115746 5.61195862 325.11796661 4.51834106 325.12025452 C2 325 2 325 0 324 C0 217.08 0 110.16 0 0 Z " fill="#1F1F20" transform="translate(284,333)"/>
<path d="M0 0 C0.33 0 0.66 0 1 0 C1.33 42.24 1.66 84.48 2 128 C2.33 128 2.66 128 3 128 C3 153.74 3 179.48 3 206 C2.01 206 1.02 206 0 206 C0 138.02 0 70.04 0 0 Z " fill="#232324" transform="translate(564,451)"/>
<path d="M0 0 C0.33 0 0.66 0 1 0 C1.83687115 30.67266293 2.11169457 61.33382354 2.12338257 92.01644516 C2.12499395 94.80203354 2.12855056 97.5876136 2.13256836 100.37319946 C2.13847974 104.83112151 2.13860873 109.28900938 2.13431931 113.74693298 C2.13333276 115.39854413 2.13388623 117.05015709 2.13615799 118.70176697 C2.14724928 128.52080933 1.85914062 138.21124693 1 148 C0.67 148 0.34 148 0 148 C-0.00423194 147.2700136 -0.00846388 146.5400272 -0.01282406 145.78792 C-0.1160215 128.04528339 -0.22464275 110.30268764 -0.33933926 92.56012154 C-0.39467356 83.98003641 -0.44815589 75.39994713 -0.49731445 66.81982422 C-0.54015376 59.3434757 -0.5864311 51.86715782 -0.63687855 44.39085662 C-0.66348154 40.43034124 -0.68833466 36.46983195 -0.70907402 32.50928116 C-0.72863271 28.78455742 -0.75277416 25.05989203 -0.78049088 21.33522034 C-0.78986539 19.96539747 -0.79753923 18.59556178 -0.80341911 17.22571945 C-0.81167338 15.36091345 -0.8265391 13.49614015 -0.84178162 11.63137817 C-0.84823417 10.58606493 -0.85468672 9.54075169 -0.8613348 8.46376228 C-0.83701326 5.9957681 -0.83701326 5.9957681 -2 4 C-1.0625 1.875 -1.0625 1.875 0 0 Z " fill="#0E0E0E" transform="translate(565,445)"/>
<path d="M0 0 C-2.90092502 1.93395001 -3.89674737 2.30131941 -7.1875 2.625 C-8.445625 2.74875 -9.70375 2.8725 -11 3 C-11 3.33 -11 3.66 -11 4 C-21.56 4 -32.12 4 -43 4 C-43 3.67 -43 3.34 -43 3 C-39.535 2.505 -39.535 2.505 -36 2 C-36 1.67 -36 1.34 -36 1 C-31.99818356 0.85599742 -27.99631206 0.71364322 -23.99438477 0.57275391 C-22.63564508 0.52469403 -21.27692068 0.47619966 -19.91821289 0.42724609 C-17.9546316 0.35657736 -15.9909879 0.28764979 -14.02734375 0.21875 C-12.84906006 0.17685547 -11.67077637 0.13496094 -10.45678711 0.09179688 C-6.96942838 -0.00081185 -3.48841149 -0.01558196 0 0 Z " fill="#242424" transform="translate(652,750)"/>
<path d="M0 0 C19.14 0 38.28 0 58 0 C58 0.33 58 0.66 58 1 C38.86 1 19.72 1 0 1 C0 0.67 0 0.34 0 0 Z " fill="#2E2D2C" transform="translate(364,847)"/>
<path d="M0 0 C1.09726581 3.29179743 0.96382036 3.83384758 -0.14453125 6.94140625 C-0.40943359 7.68970703 -0.67433594 8.43800781 -0.94726562 9.20898438 C-1.37555664 10.37397461 -1.37555664 10.37397461 -1.8125 11.5625 C-2.08642578 12.34302734 -2.36035156 13.12355469 -2.64257812 13.92773438 C-4.73030029 19.73030029 -4.73030029 19.73030029 -7 22 C-7.30873438 16.98306635 -6.26671727 13.30680076 -4.5 8.625 C-4.26152344 7.98433594 -4.02304687 7.34367188 -3.77734375 6.68359375 C-3.19358688 5.11912535 -2.59800276 3.55907863 -2 2 C-1.34 2 -0.68 2 0 2 C0 1.34 0 0.68 0 0 Z " fill="#20201F" transform="translate(850,750)"/>
<path d="M0 0 C0.66 0.33 1.32 0.66 2 1 C-4.22094254 7.71495856 -12.13883212 16.04627737 -21 19 C-21 18.34 -21 17.68 -21 17 C-19.42283761 15.74966403 -17.78498678 14.57557958 -16.125 13.4375 C-10.349431 9.35489935 -5.15587659 4.83153728 0 0 Z " fill="#0B0B0B" transform="translate(715,716)"/>
<path d="M0 0 C2.08163365 3.12245047 3.32575613 6.07034881 4.6875 9.5625 C5.14511719 10.71878906 5.60273437 11.87507813 6.07421875 13.06640625 C7 16 7 16 6 18 C2.8466664 16.4233332 2.41909449 13.28399624 1.3125 10.125 C1.07466797 9.48691406 0.83683594 8.84882813 0.59179688 8.19140625 C-1.12384055 3.37152164 -1.12384055 3.37152164 0 0 Z " fill="#242322" transform="translate(844,250)"/>
<path d="M0 0 C0.33 0.99 0.66 1.98 1 3 C-2.3 6.3 -5.6 9.6 -9 13 C-9.99 12.34 -10.98 11.68 -12 11 C-11.46890625 10.54109375 -10.9378125 10.0821875 -10.390625 9.609375 C-6.81675301 6.50506283 -3.28145941 3.41818688 0 0 Z " fill="#1D1D1C" transform="translate(822,801)"/>
<path d="M0 0 C5.85659906 1.66153012 11.4590134 3.47041916 17 6 C15.296875 7.1171875 15.296875 7.1171875 13 8 C10.640625 7.3203125 10.640625 7.3203125 8.25 6.125 C7.05117188 5.54105469 7.05117188 5.54105469 5.828125 4.9453125 C5.22484375 4.63335937 4.6215625 4.32140625 4 4 C4 3.34 4 2.68 4 2 C3.01 2.33 2.02 2.66 1 3 C0.67 2.01 0.34 1.02 0 0 Z " fill="#2B2A29" transform="translate(767,183)"/>
<path d="M0 0 C0.671875 1.70703125 0.671875 1.70703125 1 4 C-0.109375 6.32421875 -0.109375 6.32421875 -1.75 8.6875 C-2.28109375 9.47511719 -2.8121875 10.26273438 -3.359375 11.07421875 C-5 13 -5 13 -8 14 C-6.6744419 10.37723685 -5.05653045 7.36494652 -2.875 4.1875 C-2.33617187 3.39730469 -1.79734375 2.60710937 -1.2421875 1.79296875 C-0.83226562 1.20128906 -0.42234375 0.60960937 0 0 Z " fill="#232322" transform="translate(194,230)"/>
<path d="M0 0 C0.33 0 0.66 0 1 0 C1.0272415 1.41655793 1.04650467 2.83327045 1.0625 4.25 C1.07410156 5.03890625 1.08570313 5.8278125 1.09765625 6.640625 C1.00385306 8.90691002 0.63241063 10.8288895 0 13 C-0.66 13 -1.32 13 -2 13 C-2.33 13.66 -2.66 14.32 -3 15 C-2.5547115 9.72684667 -1.91626837 4.98229776 0 0 Z " fill="#111112" transform="translate(744,657)"/>
<path d="M0 0 C1.70884005 1.62339805 3.37446717 3.29319053 5 5 C5 5.66 5 6.32 5 7 C2.36 7.33 -0.28 7.66 -3 8 C-2.690625 7.236875 -2.38125 6.47375 -2.0625 5.6875 C-1.32106407 3.81210323 -0.63771783 1.91315348 0 0 Z M0 4 C0 4.66 0 5.32 0 6 C0.66 5.67 1.32 5.34 2 5 C1.34 4.67 0.68 4.34 0 4 Z " fill="#21201F" transform="translate(195,791)"/>
<path d="M0 0 C0.33 0.99 0.66 1.98 1 3 C1.99 2.67 2.98 2.34 4 2 C3.34 4.64 2.68 7.28 2 10 C1.34 10 0.68 10 0 10 C-0.33 10.66 -0.66 11.32 -1 12 C-0.814375 10.88625 -0.62875 9.7725 -0.4375 8.625 C0.31680657 5.17431139 0.31680657 5.17431139 -1 3 C-0.67 2.01 -0.34 1.02 0 0 Z " fill="#252424" transform="translate(177,256)"/>
<path d="M0 0 C0.66 0.33 1.32 0.66 2 1 C0.61990379 4.33523252 -0.84950652 6.18607951 -4 8 C-4.99 7.67 -5.98 7.34 -7 7 C-4.69 4.69 -2.38 2.38 0 0 Z " fill="#272726" transform="translate(213,208)"/>
<path d="M0 0 C0.66 0 1.32 0 2 0 C1.25 6.625 1.25 6.625 -1 10 C-1 9.34 -1 8.68 -1 8 C-1.66 8 -2.32 8 -3 8 C-1.125 2.25 -1.125 2.25 0 0 Z " fill="#1F1F1E" transform="translate(184,246)"/>
<path d="M0 0 C0.33 0 0.66 0 1 0 C1 7.92 1 15.84 1 24 C0.67 24 0.34 24 0 24 C0 16.08 0 8.16 0 0 Z " fill="#2E2E2D" transform="translate(168,296)"/>
<path d="M0 0 C0.66 0.33 1.32 0.66 2 1 C-1.17320782 4.53586014 -3.16743695 6.58578031 -8 7 C-5.42215154 4.35247996 -3.08351902 2.05567935 0 0 Z " fill="#242322" transform="translate(229,196)"/>
<path d="M0 0 C-2.6860286 1.79068573 -4.6626589 2.66055791 -7.6875 3.625 C-8.49574219 3.88539063 -9.30398438 4.14578125 -10.13671875 4.4140625 C-10.75160156 4.60742188 -11.36648438 4.80078125 -12 5 C-11 2 -11 2 -8.8125 0.8125 C-5.74609689 -0.07334979 -3.17561845 -0.14770318 0 0 Z " fill="#292827" transform="translate(782,834)"/>
<path d="M0 0 C0.99 0.33 1.98 0.66 3 1 C4.125 6.75 4.125 6.75 3 9 C2.01 9 1.02 9 0 9 C0 6.03 0 3.06 0 0 Z " fill="#353332" transform="translate(184,775)"/>
<path d="M0 0 C0.99 0.33 1.98 0.66 3 1 C3.28571429 8.42857143 3.28571429 8.42857143 1 12 C1 10.35 1 8.7 1 7 C0.34 6.67 -0.32 6.34 -1 6 C-0.67 4.02 -0.34 2.04 0 0 Z " fill="#333332" transform="translate(853,278)"/>
<path d="M0 0 C1.32 0 2.64 0 4 0 C4 1.98 4 3.96 4 6 C2.68 6.33 1.36 6.66 0 7 C-1.04449911 3.86650268 -0.93423645 3.01031744 0 0 Z " fill="#363635" transform="translate(169,735)"/>
<path d="M0 0 C2.67927341 4.01891012 2.15601248 6.24161923 2 11 C1.01 10.34 0.02 9.68 -1 9 C-0.67 6.03 -0.34 3.06 0 0 Z " fill="#1D1E1E" transform="translate(748,629)"/>
<path d="M0 0 C2.97 0.495 2.97 0.495 6 1 C5.67 1.99 5.34 2.98 5 4 C1.37 3.67 -2.26 3.34 -6 3 C-6 2.67 -6 2.34 -6 2 C-4.02 2 -2.04 2 0 2 C0 1.34 0 0.68 0 0 Z " fill="#353533" transform="translate(280,176)"/>
<path d="M0 0 C3 2 3 2 3.8125 4.875 C4.00455315 8.07588583 3.72217143 9.36609075 2 12 C0.86235649 7.73383684 0 4.43513689 0 0 Z " fill="#2D2D2B" transform="translate(173,741)"/>
<path d="M0 0 C0.33 0 0.66 0 1 0 C1 2.31 1 4.62 1 7 C-0.32 7.33 -1.64 7.66 -3 8 C-1.125 1.125 -1.125 1.125 0 0 Z " fill="#0F0F0F" transform="translate(563,450)"/>
<path d="M0 0 C2.96404505 2.80804268 5.44499019 5.18315774 7 9 C1.21538462 5.67692308 1.21538462 5.67692308 0.125 2.25 C0.08375 1.5075 0.0425 0.765 0 0 Z " fill="#282726" transform="translate(824,220)"/>
<path d="M0 0 C0.33 0.66 0.66 1.32 1 2 C0.06421005 4.35981813 -0.93347808 6.69631264 -2 9 C-2.33 9 -2.66 9 -3 9 C-3.36923077 3.46153846 -3.36923077 3.46153846 -1.5 1.125 C-1.005 0.75375 -0.51 0.3825 0 0 Z " fill="#282727" transform="translate(846,763)"/>
<path d="M0 0 C0.99 0 1.98 0 3 0 C3.66 1.98 4.32 3.96 5 6 C4.01 6.33 3.02 6.66 2 7 C1.34 4.69 0.68 2.38 0 0 Z " fill="#1D1D1D" transform="translate(384,532)"/>
<path d="M0 0 C6.75 0.75 6.75 0.75 9 3 C7.3125 3.6875 7.3125 3.6875 5 4 C2.25 2.625 2.25 2.625 0 1 C0 0.67 0 0.34 0 0 Z " fill="#232221" transform="translate(775,187)"/>
<path d="M0 0 C0.33 0 0.66 0 1 0 C1 2.97 1 5.94 1 9 C0.67 9 0.34 9 0 9 C0 6.03 0 3.06 0 0 Z " fill="#30302F" transform="translate(168,519)"/>
<path d="M0 0 C0.33 0 0.66 0 1 0 C1 2.31 1 4.62 1 7 C0.67 7 0.34 7 0 7 C0 4.69 0 2.38 0 0 Z " fill="#2F2F2F" transform="translate(168,545)"/>
<path d="M0 0 C0.33 0 0.66 0 1 0 C1 2.31 1 4.62 1 7 C0.67 7 0.34 7 0 7 C0 4.69 0 2.38 0 0 Z " fill="#2F2E2E" transform="translate(168,321)"/>
<path d="M0 0 C1.65 0 3.3 0 5 0 C5.33 0.66 5.66 1.32 6 2 C3.03 1.505 3.03 1.505 0 1 C0 0.67 0 0.34 0 0 Z " fill="#2D2D2C" transform="translate(747,176)"/>
<path d="M0 0 C0.33 0 0.66 0 1 0 C1 1.98 1 3.96 1 6 C0.67 6 0.34 6 0 6 C0 4.02 0 2.04 0 0 Z " fill="#2F2F2D" transform="translate(168,329)"/>
<path d="M0 0 C0.66 0.33 1.32 0.66 2 1 C1.34 1.66 0.68 2.32 0 3 C0 2.01 0 1.02 0 0 Z " fill="#2F2D2C" transform="translate(846,770)"/>
<path d="M0 0 C0.33 0 0.66 0 1 0 C1 1.65 1 3.3 1 5 C0.67 5 0.34 5 0 5 C0 3.35 0 1.7 0 0 Z " fill="#2F302F" transform="translate(168,634)"/>
<path d="M0 0 C0.33 0 0.66 0 1 0 C1 1.65 1 3.3 1 5 C0.67 5 0.34 5 0 5 C0 3.35 0 1.7 0 0 Z " fill="#2F2E2D" transform="translate(169,288)"/>
<path d="M0 0 C0.33 0.66 0.66 1.32 1 2 C-0.32 1.67 -1.64 1.34 -3 1 C-2.01 0.67 -1.02 0.34 0 0 Z " fill="#2E2D2C" transform="translate(190,232)"/>
<path d="M0 0 C1.485 0.99 1.485 0.99 3 2 C2.01 2 1.02 2 0 2 C0 1.34 0 0.68 0 0 Z " fill="#2E2E2C" transform="translate(192,226)"/>
<path d="M0 0 C0.33 0.66 0.66 1.32 1 2 C0.34 2.66 -0.32 3.32 -1 4 C-0.67 2.68 -0.34 1.36 0 0 Z " fill="#2E2D2C" transform="translate(201,216)"/>
<path d="M0 0 C1.32 0.33 2.64 0.66 4 1 C2.68 1.33 1.36 1.66 0 2 C0 1.34 0 0.68 0 0 Z " fill="#2D2C2C" transform="translate(208,208)"/>
<path d="M0 0 C0.99 0 1.98 0 3 0 C2.67 0.66 2.34 1.32 2 2 C1.34 1.34 0.68 0.68 0 0 Z " fill="#2E2C2C" transform="translate(278,846)"/>
<path d="M0 0 C1 4 1 4 1 4 Z " fill="#2E2F2E" transform="translate(168,553)"/>
<path d="M0 0 C0.99 0.495 0.99 0.495 2 1 C1.34 1.66 0.68 2.32 0 3 C0 2.01 0 1.02 0 0 Z " fill="#2F2C2B" transform="translate(184,240)"/>
<path d="M0 0 C4 1 4 1 4 1 Z " fill="#2E2E2D" transform="translate(247,184)"/>
<path d="M0 0 C4 1 4 1 4 1 Z " fill="#2F2D2E" transform="translate(275,176)"/>
<path d="M0 0 C3 1 3 1 3 1 Z " fill="#302F2E" transform="translate(751,845)"/>
<path d="M0 0 C3 1 3 1 3 1 Z " fill="#2C2B2B" transform="translate(272,845)"/>
<path d="M0 0 C3 1 3 1 3 1 Z " fill="#2C2C2A" transform="translate(240,835)"/>
<path d="M0 0 C0.99 0.495 0.99 0.495 2 1 C1.01 1.495 1.01 1.495 0 2 C0 1.34 0 0.68 0 0 Z " fill="#2C2C2B" transform="translate(217,820)"/>
<path d="M0 0 C0.33 0.66 0.66 1.32 1 2 C0.34 1.67 -0.32 1.34 -1 1 C-0.67 0.67 -0.34 0.34 0 0 Z " fill="#2C2C2B" transform="translate(190,789)"/>
<path d="M0 0 C0.66 0.66 1.32 1.32 2 2 C1.34 2 0.68 2 0 2 C0 1.34 0 0.68 0 0 Z " fill="#2C2C2B" transform="translate(179,769)"/>
<path d="" fill="#2C2B2B" transform="translate(0,0)"/>
<path d="M0 0 C0.99 0.495 0.99 0.495 2 1 C1.01 1.495 1.01 1.495 0 2 C0 1.34 0 0.68 0 0 Z " fill="#2E2D2C" transform="translate(172,749)"/>
<path d="" fill="#2C2C2B" transform="translate(0,0)"/>
<path d="" fill="#2B2B2C" transform="translate(0,0)"/>
<path d="M0 0 C0.66 0 1.32 0 2 0 C1.67 0.66 1.34 1.32 1 2 C0.67 1.34 0.34 0.68 0 0 Z " fill="#2E2E2D" transform="translate(168,727)"/>
<path d="" fill="#2E2D2E" transform="translate(0,0)"/>
<path d="M0 0 C0.66 0 1.32 0 2 0 C1.67 0.66 1.34 1.32 1 2 C0.67 1.34 0.34 0.68 0 0 Z " fill="#2D2D2C" transform="translate(171,273)"/>
<path d="M0 0 C0.99 0.495 0.99 0.495 2 1 C1.01 1.495 1.01 1.495 0 2 C0 1.34 0 0.68 0 0 Z " fill="#2C2C2B" transform="translate(830,224)"/>
<path d="M0 0 C0.66 0 1.32 0 2 0 C1.67 0.66 1.34 1.32 1 2 C0.67 1.34 0.34 0.68 0 0 Z " fill="#2A2928" transform="translate(822,216)"/>
<path d="" fill="#302F2E" transform="translate(0,0)"/>
<path d="M0 0 C0.66 0.66 1.32 1.32 2 2 C1.34 2 0.68 2 0 2 C0 1.34 0 0.68 0 0 Z " fill="#2E2F2D" transform="translate(754,176)"/>
<path d="M0 0 C3 1 3 1 3 1 Z " fill="#30302F" transform="translate(266,176)"/>
<path d="M0 0 C2 1 2 1 2 1 Z " fill="#2D2C2B" transform="translate(745,846)"/>
<path d="M0 0 C2 1 2 1 2 1 Z " fill="#30302E" transform="translate(247,838)"/>
<path d="M0 0 C2 1 2 1 2 1 Z " fill="#2D2C29" transform="translate(221,823)"/>
<path d="" fill="#2D2C2C" transform="translate(0,0)"/>
<path d="" fill="#2D2D2D" transform="translate(0,0)"/>
<path d="M0 0 C2 1 2 1 2 1 Z " fill="#2A2928" transform="translate(188,787)"/>
<path d="" fill="#2F2E2B" transform="translate(0,0)"/>
<path d="" fill="#2F302F" transform="translate(0,0)"/>
<path d="" fill="#302F2E" transform="translate(0,0)"/>
<path d="" fill="#2E2E2D" transform="translate(0,0)"/>
<path d="" fill="#302E2D" transform="translate(0,0)"/>
<path d="" fill="#2C2B2A" transform="translate(0,0)"/>
<path d="" fill="#2D2C2C" transform="translate(0,0)"/>
<path d="M0 0 C2 1 2 1 2 1 Z " fill="#2B2B2B" transform="translate(218,200)"/>
<path d="M0 0 C2 1 2 1 2 1 Z " fill="#2F2F2D" transform="translate(229,194)"/>
<path d="M0 0 C2 1 2 1 2 1 Z " fill="#2E2E2E" transform="translate(777,184)"/>
<path d="M0 0 C2 1 2 1 2 1 Z " fill="#2B2A28" transform="translate(774,184)"/>
<path d="" fill="#2E2F2D" transform="translate(0,0)"/>
<path d="" fill="#30302F" transform="translate(0,0)"/>
<path d="" fill="#BBBBBA" transform="translate(0,0)"/>
<path d="" fill="#BAB9B9" transform="translate(0,0)"/>
<path d="" fill="#BAB9B7" transform="translate(0,0)"/>
<path d="" fill="#ADAEAE" transform="translate(0,0)"/>
<path d="" fill="#A6A8A6" transform="translate(0,0)"/>
<path d="" fill="#3D3D3C" transform="translate(0,0)"/>
<path d="" fill="#2C2D2B" transform="translate(0,0)"/>
<path d="" fill="#2E2D2D" transform="translate(0,0)"/>
<path d="" fill="#2E2C2B" transform="translate(0,0)"/>
<path d="" fill="#2E2E2C" transform="translate(0,0)"/>
<path d="" fill="#31312F" transform="translate(0,0)"/>
<path d="" fill="#2A2A29" transform="translate(0,0)"/>
<path d="" fill="#2B2C2C" transform="translate(0,0)"/>
<path d="" fill="#2B2A2A" transform="translate(0,0)"/>
<path d="" fill="#302F30" transform="translate(0,0)"/>
<path d="" fill="#2C2D2B" transform="translate(0,0)"/>
<path d="" fill="#2C2C2B" transform="translate(0,0)"/>
<path d="" fill="#2D2C2B" transform="translate(0,0)"/>
<path d="" fill="#2F2E2D" transform="translate(0,0)"/>
<path d="" fill="#2E2B2C" transform="translate(0,0)"/>
<path d="" fill="#2F2E2C" transform="translate(0,0)"/>
<path d="" fill="#2D2A2B" transform="translate(0,0)"/>
<path d="" fill="#2D2C2D" transform="translate(0,0)"/>
<path d="" fill="#2B2B28" transform="translate(0,0)"/>
<path d="" fill="#2C2825" transform="translate(0,0)"/>
<path d="" fill="#2A2725" transform="translate(0,0)"/>
<path d="" fill="#2C2C2D" transform="translate(0,0)"/>
<path d="" fill="#2A2927" transform="translate(0,0)"/>
<path d="" fill="#2C2A2A" transform="translate(0,0)"/>
<path d="" fill="#2A2927" transform="translate(0,0)"/>
<path d="" fill="#2E2C2B" transform="translate(0,0)"/>
<path d="" fill="#2E2D2C" transform="translate(0,0)"/>
<path d="" fill="#2D2C2A" transform="translate(0,0)"/>
<path d="" fill="#2E2E2C" transform="translate(0,0)"/>
<path d="" fill="#2A2A28" transform="translate(0,0)"/>
<path d="" fill="#2D2C2A" transform="translate(0,0)"/>
<path d="" fill="#2F2E2E" transform="translate(0,0)"/>
<path d="" fill="#2E2C2B" transform="translate(0,0)"/>
<path d="" fill="#2C2B2A" transform="translate(0,0)"/>
<path d="" fill="#2C2B2A" transform="translate(0,0)"/>
<path d="" fill="#312E2D" transform="translate(0,0)"/>
<path d="" fill="#979796" transform="translate(0,0)"/>
<path d="" fill="#2D2C2C" transform="translate(0,0)"/>
<path d="" fill="#2D2D2D" transform="translate(0,0)"/>
<path d="" fill="#2E2B29" transform="translate(0,0)"/>
<path d="" fill="#2E2D2B" transform="translate(0,0)"/>
<path d="" fill="#2D2C2B" transform="translate(0,0)"/>
<path d="" fill="#2D2C2A" transform="translate(0,0)"/>
<path d="" fill="#302F2E" transform="translate(0,0)"/>
<path d="" fill="#2E2D2C" transform="translate(0,0)"/>
<path d="" fill="#2F2E2D" transform="translate(0,0)"/>
<path d="" fill="#2E2F2E" transform="translate(0,0)"/>
<path d="" fill="#2E2E2C" transform="translate(0,0)"/>
<path d="" fill="#2B2D2D" transform="translate(0,0)"/>
<path d="" fill="#2E2F2B" transform="translate(0,0)"/>
<path d="" fill="#2C2F2D" transform="translate(0,0)"/>
<path d="" fill="#2E322E" transform="translate(0,0)"/>
<path d="" fill="#31312F" transform="translate(0,0)"/>
<path d="" fill="#2D2D2C" transform="translate(0,0)"/>
<path d="" fill="#303130" transform="translate(0,0)"/>
<path d="" fill="#2F3030" transform="translate(0,0)"/>
<path d="" fill="#2E2F2F" transform="translate(0,0)"/>
<path d="" fill="#2E2D2E" transform="translate(0,0)"/>
<path d="" fill="#312F2F" transform="translate(0,0)"/>
<path d="" fill="#302D2D" transform="translate(0,0)"/>
<path d="" fill="#2F2F2C" transform="translate(0,0)"/>
<path d="" fill="#2F2F2E" transform="translate(0,0)"/>
<path d="" fill="#2F2D2D" transform="translate(0,0)"/>
<path d="" fill="#2E2F2D" transform="translate(0,0)"/>
<path d="" fill="#2F2E2D" transform="translate(0,0)"/>
<path d="" fill="#302F2F" transform="translate(0,0)"/>
<path d="" fill="#2F2F2D" transform="translate(0,0)"/>
<path d="" fill="#2F2E2D" transform="translate(0,0)"/>
<path d="" fill="#2E2F2D" transform="translate(0,0)"/>
<path d="" fill="#302E2D" transform="translate(0,0)"/>
<path d="" fill="#31302E" transform="translate(0,0)"/>
<path d="" fill="#2E2E2B" transform="translate(0,0)"/>
<path d="" fill="#2F2D2B" transform="translate(0,0)"/>
<path d="" fill="#2C2C2A" transform="translate(0,0)"/>
<path d="" fill="#2C2D2C" transform="translate(0,0)"/>
<path d="" fill="#2C2B2C" transform="translate(0,0)"/>
<path d="" fill="#2D2D2B" transform="translate(0,0)"/>
<path d="" fill="#2E2D2C" transform="translate(0,0)"/>
<path d="" fill="#2D2C2C" transform="translate(0,0)"/>
<path d="" fill="#2D2B2A" transform="translate(0,0)"/>
<path d="" fill="#2E2E2D" transform="translate(0,0)"/>
<path d="" fill="#2B2B2B" transform="translate(0,0)"/>
<path d="" fill="#2B2B29" transform="translate(0,0)"/>
<path d="" fill="#2C2C2A" transform="translate(0,0)"/>
<path d="" fill="#2C2A29" transform="translate(0,0)"/>
<path d="" fill="#2F2E2D" transform="translate(0,0)"/>
<path d="" fill="#2F2F2E" transform="translate(0,0)"/>
<path d="" fill="#2D2E2D" transform="translate(0,0)"/>
<path d="" fill="#31302F" transform="translate(0,0)"/>
<path d="" fill="#2F2E2B" transform="translate(0,0)"/>
<path d="" fill="#302E2D" transform="translate(0,0)"/>
<path d="" fill="#2F2C2C" transform="translate(0,0)"/>
<path d="" fill="#2E2F2C" transform="translate(0,0)"/>
<path d="" fill="#2B2B2B" transform="translate(0,0)"/>
<path d="" fill="#303130" transform="translate(0,0)"/>
<path d="" fill="#2C2C29" transform="translate(0,0)"/>
<path d="" fill="#2D2D2B" transform="translate(0,0)"/>
<path d="" fill="#303131" transform="translate(0,0)"/>
<path d="" fill="#322F2F" transform="translate(0,0)"/>
<path d="" fill="#312E2E" transform="translate(0,0)"/>
<path d="" fill="#313132" transform="translate(0,0)"/>
<path d="" fill="#303230" transform="translate(0,0)"/>
<path d="" fill="#30302F" transform="translate(0,0)"/>
<path d="" fill="#B2B0B0" transform="translate(0,0)"/>
<path d="" fill="#AFAEAD" transform="translate(0,0)"/>
<path d="" fill="#A8A9A6" transform="translate(0,0)"/>
<path d="" fill="#9D9B9A" transform="translate(0,0)"/>
<path d="" fill="#9C9C9B" transform="translate(0,0)"/>
<path d="" fill="#9C9A99" transform="translate(0,0)"/>
<path d="" fill="#9E9B9A" transform="translate(0,0)"/>
<path d="" fill="#A09C9C" transform="translate(0,0)"/>
<path d="" fill="#B9B6B4" transform="translate(0,0)"/>
</svg>
